<svg width="1024" height="1024" viewBox="0 0 1024 1024" fill="none" xmlns="http://www.w3.org/2000/svg">
  <!-- Background Circle with Gradient -->
  <defs>
    <linearGradient id="backgroundGradient" x1="0%" y1="0%" x2="100%" y2="100%">
      <stop offset="0%" style="stop-color:#6C63FF;stop-opacity:1" />
      <stop offset="50%" style="stop-color:#5A52FF;stop-opacity:1" />
      <stop offset="100%" style="stop-color:#4B42FF;stop-opacity:1" />
    </linearGradient>
    <linearGradient id="checkGradient" x1="0%" y1="0%" x2="100%" y2="100%">
      <stop offset="0%" style="stop-color:#4ECDC4;stop-opacity:1" />
      <stop offset="100%" style="stop-color:#44B6A8;stop-opacity:1" />
    </linearGradient>
    <filter id="shadow" x="-50%" y="-50%" width="200%" height="200%">
      <feDropShadow dx="8" dy="8" stdDeviation="16" flood-color="black" flood-opacity="0.3"/>
    </filter>
  </defs>
  
  <!-- Background Circle -->
  <circle cx="512" cy="512" r="480" fill="url(#backgroundGradient)" filter="url(#shadow)"/>
  
  <!-- Task List Container -->
  <rect x="280" y="240" width="464" height="560" rx="40" ry="40" fill="white" stroke="none"/>
  
  <!-- Task List Lines -->
  <rect x="360" y="320" width="280" height="12" rx="6" fill="#E5E7EB"/>
  <rect x="360" y="380" width="240" height="12" rx="6" fill="#E5E7EB"/>
  <rect x="360" y="440" width="320" height="12" rx="6" fill="#E5E7EB"/>
  <rect x="360" y="560" width="260" height="12" rx="6" fill="#E5E7EB"/>
  <rect x="360" y="620" width="200" height="12" rx="6" fill="#E5E7EB"/>
  <rect x="360" y="680" width="280" height="12" rx="6" fill="#E5E7EB"/>
  
  <!-- Checkboxes -->
  <rect x="320" y="310" width="32" height="32" rx="8" fill="#F3F4F6" stroke="#D1D5DB" stroke-width="2"/>
  <rect x="320" y="370" width="32" height="32" rx="8" fill="#F3F4F6" stroke="#D1D5DB" stroke-width="2"/>
  <rect x="320" y="430" width="32" height="32" rx="8" fill="#F3F4F6" stroke="#D1D5DB" stroke-width="2"/>
  <rect x="320" y="550" width="32" height="32" rx="8" fill="#F3F4F6" stroke="#D1D5DB" stroke-width="2"/>
  <rect x="320" y="610" width="32" height="32" rx="8" fill="#F3F4F6" stroke="#D1D5DB" stroke-width="2"/>
  <rect x="320" y="670" width="32" height="32" rx="8" fill="#F3F4F6" stroke="#D1D5DB" stroke-width="2"/>
  
  <!-- Completed Checkbox -->
  <rect x="320" y="490" width="32" height="32" rx="8" fill="url(#checkGradient)" stroke="none"/>
  <path d="M328 506 L334 512 L344 498" stroke="white" stroke-width="4" stroke-linecap="round" stroke-linejoin="round" fill="none"/>
  
  <!-- Strikethrough Line for Completed Task -->
  <line x1="360" y1="506" x2="640" y2="506" stroke="#9CA3AF" stroke-width="4"/>
  
  <!-- Large Checkmark Overlay -->
  <circle cx="700" cy="360" r="90" fill="url(#checkGradient)" stroke="white" stroke-width="12"/>
  <path d="M660 360 L690 390 L740 330" stroke="white" stroke-width="16" stroke-linecap="round" stroke-linejoin="round" fill="none"/>
</svg>